<svg width="50" height="30" viewBox="0 0 50 30" fill="none" xmlns="http://www.w3.org/2000/svg">
<rect width="50" height="30" rx="3" fill="#80A1A9"/>
<g clip-path="url(#clip0_105_783)">
<path d="M29.0501 12.6363L20.9951 7.94543" stroke="black" stroke-linecap="round" stroke-linejoin="round"/>
<path d="M33.0999 18.6364V11.3637C33.0996 11.0449 33.0163 10.7317 32.8583 10.4557C32.7003 10.1796 32.4733 9.95039 32.1999 9.79096L25.8999 6.1546C25.6263 5.99502 25.3159 5.91101 24.9999 5.91101C24.6839 5.91101 24.3735 5.99502 24.0999 6.1546L17.7999 9.79096C17.5265 9.95039 17.2995 10.1796 17.1415 10.4557C16.9836 10.7317 16.9002 11.0449 16.8999 11.3637V18.6364C16.9002 18.9553 16.9836 19.2684 17.1415 19.5445C17.2995 19.8205 17.5265 20.0497 17.7999 20.2091L24.0999 23.8455C24.3735 24.0051 24.6839 24.0891 24.9999 24.0891C25.3159 24.0891 25.6263 24.0051 25.8999 23.8455L32.1999 20.2091C32.4733 20.0497 32.7003 19.8205 32.8583 19.5445C33.0163 19.2684 33.0996 18.9553 33.0999 18.6364Z" stroke="black" stroke-linecap="round" stroke-linejoin="round"/>
<path d="M17.1699 10.4546L24.9999 15V23.8546" stroke="black" stroke-linecap="round" stroke-linejoin="round"/>
<path d="M32.83 10.4546L25 15" stroke="black" stroke-linecap="round" stroke-linejoin="round"/>
</g>
<defs>
<clipPath id="clip0_105_783">
<rect width="18" height="20" fill="white" transform="translate(16 5)"/>
</clipPath>
</defs>
</svg>
