<svg width="50" height="30" viewBox="0 0 50 30" fill="none" xmlns="http://www.w3.org/2000/svg">
<rect width="50" height="30" rx="3" fill="#D9D9D9"/>
<g clip-path="url(#clip0_46_1462)">
<path d="M33.3727 18.5363C32.7333 20.0506 31.6953 21.3631 30.3692 22.3343C29.0431 23.3055 27.4785 23.899 25.8419 24.0516C24.2053 24.2042 22.5579 23.9103 21.0751 23.201C19.5923 22.4917 18.3295 21.3937 17.4212 20.0238C16.5128 18.6539 15.9929 17.0633 15.9167 15.4214C15.8405 13.7794 16.2109 12.1476 16.9885 10.6994C17.7661 9.25124 18.9217 8.041 20.3325 7.19747C21.7432 6.35393 23.3563 5.90867 25 5.90906V15L33.3727 18.5363Z" stroke="black" stroke-linecap="round" stroke-linejoin="round"/>
<path d="M34.0909 15C34.0909 13.8061 33.8558 12.624 33.3989 11.521C32.942 10.4181 32.2724 9.41589 31.4282 8.57172C30.5841 7.72755 29.5819 7.05792 28.4789 6.60106C27.376 6.1442 26.1938 5.90906 25 5.90906V15H34.0909Z" stroke="black" stroke-linecap="round" stroke-linejoin="round"/>
</g>
<defs>
<clipPath id="clip0_46_1462">
<rect width="20" height="20" fill="white" transform="translate(15 5)"/>
</clipPath>
</defs>
</svg>
