<svg width="50" height="30" viewBox="0 0 50 30" fill="none" xmlns="http://www.w3.org/2000/svg">
<rect width="50" height="30" rx="3" fill="#D9D9D9"/>
<g clip-path="url(#clip0_46_1444)">
<path d="M29.05 12.6363L20.995 7.94543" stroke="black" stroke-linecap="round" stroke-linejoin="round"/>
<path d="M33.1 18.6364V11.3637C33.0997 11.0449 33.0163 10.7317 32.8584 10.4557C32.7004 10.1796 32.4734 9.95039 32.2 9.79096L25.9 6.1546C25.6264 5.99502 25.316 5.91101 25 5.91101C24.684 5.91101 24.3736 5.99502 24.1 6.1546L17.8 9.79096C17.5266 9.95039 17.2996 10.1796 17.1416 10.4557C16.9836 10.7317 16.9003 11.0449 16.9 11.3637V18.6364C16.9003 18.9553 16.9836 19.2684 17.1416 19.5445C17.2996 19.8205 17.5266 20.0497 17.8 20.2091L24.1 23.8455C24.3736 24.0051 24.684 24.0891 25 24.0891C25.316 24.0891 25.6264 24.0051 25.9 23.8455L32.2 20.2091C32.4734 20.0497 32.7004 19.8205 32.8584 19.5445C33.0163 19.2684 33.0997 18.9553 33.1 18.6364Z" stroke="black" stroke-linecap="round" stroke-linejoin="round"/>
<path d="M17.17 10.4546L25 15V23.8546" stroke="black" stroke-linecap="round" stroke-linejoin="round"/>
<path d="M32.83 10.4546L25 15" stroke="black" stroke-linecap="round" stroke-linejoin="round"/>
</g>
<defs>
<clipPath id="clip0_46_1444">
<rect width="18" height="20" fill="white" transform="translate(16 5)"/>
</clipPath>
</defs>
</svg>
