<svg width="50" height="30" viewBox="0 0 50 30" fill="none" xmlns="http://www.w3.org/2000/svg">
<rect width="50" height="30" rx="3" fill="#80A1A9"/>
<g clip-path="url(#clip0_105_793)">
<path d="M33.3728 18.5363C32.7334 20.0506 31.6954 21.3631 30.3693 22.3343C29.0432 23.3055 27.4786 23.899 25.842 24.0516C24.2053 24.2042 22.558 23.9103 21.0752 23.201C19.5924 22.4917 18.3296 21.3937 17.4212 20.0238C16.5129 18.6539 15.993 17.0633 15.9168 15.4214C15.8406 13.7794 16.211 12.1476 16.9885 10.6994C17.7661 9.25124 18.9218 8.041 20.3325 7.19747C21.7433 6.35393 23.3563 5.90867 25.0001 5.90906V15L33.3728 18.5363Z" stroke="black" stroke-linecap="round" stroke-linejoin="round"/>
<path d="M34.0909 15C34.0909 13.8061 33.8558 12.624 33.3989 11.521C32.942 10.4181 32.2724 9.41589 31.4282 8.57172C30.5841 7.72755 29.5819 7.05792 28.4789 6.60106C27.376 6.1442 26.1938 5.90906 25 5.90906V15H34.0909Z" stroke="black" stroke-linecap="round" stroke-linejoin="round"/>
</g>
<defs>
<clipPath id="clip0_105_793">
<rect width="20" height="20" fill="white" transform="translate(15 5)"/>
</clipPath>
</defs>
</svg>
