<svg width="104" height="11" viewBox="0 0 104 11" fill="none" xmlns="http://www.w3.org/2000/svg">
<path d="M0.716916 10.5982C0.615098 10.5982 0.527166 10.5613 0.453116 10.4874C0.379067 10.4136 0.342041 10.3259 0.342041 10.2243V1.2797C0.342041 1.17816 0.379067 1.09047 0.453116 1.01663C0.527166 0.94278 0.615098 0.905857 0.716916 0.905857H4.92386C5.76617 0.905857 6.49741 1.03047 7.11758 1.2797C7.747 1.5197 8.23295 1.89355 8.57543 2.40124C8.92717 2.8997 9.10303 3.53201 9.10303 4.29816C9.10303 5.06432 8.92717 5.69201 8.57543 6.18127C8.23295 6.66124 7.747 7.01663 7.11758 7.2474C6.49741 7.46893 5.76617 7.5797 4.92386 7.5797H3.95196V10.2243C3.95196 10.3259 3.91493 10.4136 3.84088 10.4874C3.76683 10.5613 3.6789 10.5982 3.57708 10.5982H0.716916ZM3.88254 5.01816H4.85444C5.00254 5.01816 5.14601 4.96278 5.28485 4.85201C5.42369 4.73201 5.49312 4.53816 5.49312 4.27047C5.49312 4.09509 5.44684 3.9197 5.35427 3.74432C5.27097 3.56893 5.10436 3.48127 4.85444 3.48127H3.88254V5.01816ZM10.5065 10.5982C10.4047 10.5982 10.3168 10.5613 10.2427 10.4874C10.1687 10.4136 10.1316 10.3259 10.1316 10.2243V1.2797C10.1316 1.17816 10.1687 1.09047 10.2427 1.01663C10.3168 0.94278 10.4047 0.905857 10.5065 0.905857H14.6163C15.9492 0.905857 16.9905 1.20586 17.7402 1.80586C18.49 2.40586 18.8649 3.2274 18.8649 4.27047C18.8649 4.88893 18.7214 5.42893 18.4344 5.8905C18.1568 6.34281 17.8004 6.7074 17.3653 6.98432L19.0731 10.1413C19.1009 10.1967 19.1148 10.2474 19.1148 10.2936C19.1148 10.3767 19.0824 10.4505 19.0176 10.5151C18.962 10.5705 18.8926 10.5982 18.8093 10.5982H15.963C15.7779 10.5982 15.6391 10.552 15.5465 10.4597C15.4539 10.3674 15.3938 10.289 15.366 10.2243L14.172 7.5797H13.6027V10.2243C13.6027 10.3259 13.5657 10.4136 13.4916 10.4874C13.4176 10.5613 13.3296 10.5982 13.2278 10.5982H10.5065ZM13.6027 4.94893H14.6163C14.8292 4.94893 14.9865 4.8797 15.0883 4.74124C15.1994 4.59355 15.2549 4.42739 15.2549 4.24278C15.2549 4.05816 15.204 3.8874 15.1022 3.73047C15.0096 3.56435 14.8477 3.48127 14.6163 3.48127H13.6027V4.94893ZM20.5263 10.5982C20.4245 10.5982 20.3366 10.5613 20.2625 10.4874C20.1885 10.4136 20.1515 10.3259 20.1515 10.2243V1.2797C20.1515 1.17816 20.1885 1.09047 20.2625 1.01663C20.3366 0.94278 20.4245 0.905857 20.5263 0.905857H23.3587C23.4606 0.905857 23.5485 0.94278 23.6225 1.01663C23.6966 1.09047 23.7336 1.17816 23.7336 1.2797V10.2243C23.7336 10.3259 23.6966 10.4136 23.6225 10.4874C23.5485 10.5613 23.4606 10.5982 23.3587 10.5982H20.5263ZM29.6645 10.7367C28.7759 10.7367 27.9892 10.6074 27.3042 10.349C26.6192 10.0905 26.0731 9.68435 25.6658 9.1305C25.2678 8.57663 25.0503 7.86124 25.0133 6.98432C25.004 6.60586 24.9994 6.1997 24.9994 5.76588C24.9994 5.33201 25.004 4.91663 25.0133 4.5197C25.0503 3.66127 25.2725 2.95512 25.6797 2.40124C26.0963 1.8474 26.647 1.43663 27.332 1.16893C28.0262 0.901241 28.8037 0.767395 29.6645 0.767395C30.2569 0.767395 30.8262 0.836626 31.3723 0.975087C31.9277 1.10432 32.4275 1.31201 32.8718 1.59816C33.3161 1.88432 33.6678 2.25355 33.927 2.70586C34.1954 3.14893 34.3343 3.68432 34.3435 4.31201C34.3435 4.39509 34.3111 4.46893 34.2463 4.53355C34.1908 4.58893 34.1214 4.61663 34.0381 4.61663H31.2057C31.0576 4.61663 30.9465 4.58893 30.8725 4.53355C30.8077 4.46893 30.7475 4.36278 30.692 4.21509C30.5901 3.9197 30.4513 3.72124 30.2754 3.6197C30.0996 3.51816 29.8913 3.46739 29.6506 3.46739C29.3452 3.46739 29.0999 3.55047 28.9148 3.71663C28.7389 3.87355 28.6417 4.16432 28.6232 4.58893C28.5954 5.34586 28.5954 6.12124 28.6232 6.91512C28.6417 7.3397 28.7389 7.63509 28.9148 7.80127C29.0999 7.95819 29.3452 8.03665 29.6506 8.03665C29.8913 8.03665 30.0996 7.98127 30.2754 7.87047C30.4606 7.7597 30.5994 7.56589 30.692 7.28893C30.7382 7.13201 30.7984 7.02586 30.8725 6.97047C30.9465 6.91509 31.0576 6.88742 31.2057 6.88742H34.0381C34.1214 6.88742 34.1908 6.91973 34.2463 6.98432C34.3111 7.0397 34.3435 7.10893 34.3435 7.19204C34.3343 7.81973 34.1954 8.35973 33.927 8.81201C33.6678 9.25512 33.3161 9.61973 32.8718 9.90588C32.4275 10.192 31.9277 10.4043 31.3723 10.5428C30.8262 10.672 30.2569 10.7367 29.6645 10.7367ZM35.8208 10.5982C35.7189 10.5982 35.631 10.5613 35.557 10.4874C35.4829 10.4136 35.4459 10.3259 35.4459 10.2243V1.2797C35.4459 1.17816 35.4829 1.09047 35.557 1.01663C35.631 0.94278 35.7189 0.905857 35.8208 0.905857H42.9434C43.0452 0.905857 43.1332 0.94278 43.2072 1.01663C43.2813 1.09047 43.3183 1.17816 43.3183 1.2797V3.23204C43.3183 3.33355 43.2813 3.42124 43.2072 3.49509C43.1332 3.56896 43.0452 3.60589 42.9434 3.60589H38.7781V4.47816H42.638C42.7398 4.47816 42.8277 4.51509 42.9018 4.58893C42.9758 4.66278 43.0128 4.75047 43.0128 4.85201V6.65201C43.0128 6.75355 42.9758 6.84124 42.9018 6.91512C42.8277 6.98893 42.7398 7.02586 42.638 7.02586H38.7781V7.89816H43.0545C43.1563 7.89816 43.2442 7.93509 43.3183 8.00896C43.3923 8.08281 43.4294 8.17047 43.4294 8.27201V10.2243C43.4294 10.3259 43.3923 10.4136 43.3183 10.4874C43.2442 10.5613 43.1563 10.5982 43.0545 10.5982H35.8208ZM48.7609 10.7367C47.7335 10.7367 46.8866 10.5982 46.2201 10.3213C45.5537 10.0443 45.0538 9.67973 44.7206 9.22742C44.3874 8.77512 44.2115 8.29512 44.193 7.7874C44.193 7.70432 44.2208 7.63509 44.2763 7.5797C44.3411 7.51509 44.4151 7.48278 44.4985 7.48278H47.1365C47.2846 7.48278 47.3956 7.50586 47.4697 7.55201C47.553 7.58893 47.6409 7.64435 47.7335 7.71819C47.8261 7.78281 47.9186 7.84281 48.0112 7.89816C48.113 7.94432 48.2241 7.98124 48.3444 8.00896C48.474 8.02742 48.6128 8.03665 48.7609 8.03665C49.0756 8.03665 49.3256 8.00435 49.5107 7.93973C49.7051 7.86589 49.8023 7.76896 49.8023 7.64893C49.8023 7.53817 49.7467 7.44586 49.6356 7.37201C49.5338 7.29816 49.3533 7.23355 49.0942 7.17816C48.835 7.11355 48.474 7.05355 48.0112 6.99816C47.2799 6.89663 46.6459 6.72586 46.109 6.48586C45.5722 6.24586 45.1556 5.91816 44.8594 5.50278C44.5725 5.07816 44.429 4.56124 44.429 3.95201C44.429 3.32432 44.6049 2.77047 44.9566 2.29047C45.3176 1.81047 45.8128 1.43663 46.4423 1.16893C47.0809 0.901241 47.8214 0.767395 48.6637 0.767395C49.358 0.767395 49.9735 0.859703 50.5104 1.04432C51.0472 1.2197 51.5008 1.45509 51.871 1.75047C52.2413 2.03663 52.5236 2.34586 52.718 2.67816C52.9123 3.01047 53.0142 3.32893 53.0234 3.63355C53.0234 3.71663 52.991 3.79047 52.9262 3.85509C52.8707 3.91047 52.8059 3.93816 52.7318 3.93816H49.955C49.8254 3.93816 49.7189 3.9197 49.6356 3.88278C49.5616 3.84586 49.4829 3.79047 49.3996 3.71663C49.3533 3.67047 49.2654 3.6197 49.1358 3.56432C49.0155 3.4997 48.8581 3.46739 48.6637 3.46739C48.4323 3.46739 48.2611 3.50432 48.15 3.57816C48.0482 3.64278 47.9973 3.73512 47.9973 3.85509C47.9973 3.93816 48.0389 4.01663 48.1222 4.09047C48.2056 4.16432 48.3583 4.22893 48.5804 4.28432C48.8026 4.3397 49.1219 4.39509 49.5384 4.45047C50.4641 4.56124 51.2046 4.74124 51.7599 4.99047C52.3246 5.23047 52.7318 5.55355 52.9818 5.9597C53.2409 6.36586 53.3705 6.86893 53.3705 7.46893C53.3705 8.14278 53.1669 8.72432 52.7596 9.21358C52.3616 9.70281 51.8155 10.0813 51.1213 10.349C50.427 10.6074 49.6403 10.7367 48.7609 10.7367ZM58.7892 10.7367C57.9006 10.7367 57.1138 10.6074 56.4288 10.349C55.7439 10.0905 55.1978 9.68435 54.7905 9.1305C54.3925 8.57663 54.1749 7.86124 54.1379 6.98432C54.1287 6.60586 54.124 6.1997 54.124 5.76588C54.124 5.33201 54.1287 4.91663 54.1379 4.5197C54.1749 3.66127 54.3971 2.95512 54.8044 2.40124C55.2209 1.8474 55.7716 1.43663 56.4566 1.16893C57.1508 0.901241 57.9283 0.767395 58.7892 0.767395C59.3816 0.767395 59.9508 0.836626 60.4969 0.975087C61.0523 1.10432 61.5521 1.31201 61.9964 1.59816C62.4407 1.88432 62.7925 2.25355 63.0516 2.70586C63.3201 3.14893 63.4589 3.68432 63.4682 4.31201C63.4682 4.39509 63.4358 4.46893 63.371 4.53355C63.3154 4.58893 63.246 4.61663 63.1627 4.61663H60.3303C60.1822 4.61663 60.0711 4.58893 59.9971 4.53355C59.9323 4.46893 59.8721 4.36278 59.8166 4.21509C59.7148 3.9197 59.5759 3.72124 59.4001 3.6197C59.2242 3.51816 59.0159 3.46739 58.7753 3.46739C58.4698 3.46739 58.2245 3.55047 58.0394 3.71663C57.8635 3.87355 57.7663 4.16432 57.7478 4.58893C57.7201 5.34586 57.7201 6.12124 57.7478 6.91512C57.7663 7.3397 57.8635 7.63509 58.0394 7.80127C58.2245 7.95819 58.4698 8.03665 58.7753 8.03665C59.0159 8.03665 59.2242 7.98127 59.4001 7.87047C59.5852 7.7597 59.724 7.56589 59.8166 7.28893C59.8629 7.13201 59.923 7.02586 59.9971 6.97047C60.0711 6.91509 60.1822 6.88742 60.3303 6.88742H63.1627C63.246 6.88742 63.3154 6.91973 63.371 6.98432C63.4358 7.0397 63.4682 7.10893 63.4682 7.19204C63.4589 7.81973 63.3201 8.35973 63.0516 8.81201C62.7925 9.25512 62.4407 9.61973 61.9964 9.90588C61.5521 10.192 61.0523 10.4043 60.4969 10.5428C59.9508 10.672 59.3816 10.7367 58.7892 10.7367ZM64.9454 10.5982C64.8436 10.5982 64.7556 10.5659 64.6816 10.5013C64.6075 10.4274 64.5705 10.3351 64.5705 10.2243V1.2797C64.5705 1.17816 64.6075 1.09047 64.6816 1.01663C64.7556 0.94278 64.8436 0.905857 64.9454 0.905857H67.6667C67.7685 0.905857 67.8565 0.94278 67.9305 1.01663C68.0046 1.09047 68.0416 1.17816 68.0416 1.2797V4.1874H70.2908V1.2797C70.2908 1.17816 70.3279 1.09047 70.4019 1.01663C70.476 0.94278 70.5639 0.905857 70.6657 0.905857H73.387C73.4889 0.905857 73.5768 0.94278 73.6508 1.01663C73.7249 1.09047 73.7619 1.17816 73.7619 1.2797V10.2243C73.7619 10.3259 73.7249 10.4136 73.6508 10.4874C73.5768 10.5613 73.4889 10.5982 73.387 10.5982H70.6657C70.5639 10.5982 70.476 10.5613 70.4019 10.4874C70.3279 10.4136 70.2908 10.3259 70.2908 10.2243V7.23355H68.0416V10.2243C68.0416 10.3259 68.0046 10.4136 67.9305 10.4874C67.8565 10.5613 67.7685 10.5982 67.6667 10.5982H64.9454ZM75.6704 10.5982C75.5686 10.5982 75.4807 10.5613 75.4066 10.4874C75.3326 10.4136 75.2956 10.3259 75.2956 10.2243V1.2797C75.2956 1.17816 75.3326 1.09047 75.4066 1.01663C75.4807 0.94278 75.5686 0.905857 75.6704 0.905857H82.7931C82.8949 0.905857 82.9828 0.94278 83.0569 1.01663C83.1309 1.09047 83.168 1.17816 83.168 1.2797V3.23204C83.168 3.33355 83.1309 3.42124 83.0569 3.49509C82.9828 3.56896 82.8949 3.60589 82.7931 3.60589H78.6278V4.47816H82.4876C82.5894 4.47816 82.6774 4.51509 82.7514 4.58893C82.8255 4.66278 82.8625 4.75047 82.8625 4.85201V6.65201C82.8625 6.75355 82.8255 6.84124 82.7514 6.91512C82.6774 6.98893 82.5894 7.02586 82.4876 7.02586H78.6278V7.89816H82.9042C83.006 7.89816 83.0939 7.93509 83.168 8.00896C83.242 8.08281 83.279 8.17047 83.279 8.27201V10.2243C83.279 10.3259 83.242 10.4136 83.168 10.4874C83.0939 10.5613 83.006 10.5982 82.9042 10.5982H75.6704ZM88.8897 10.7367C88.0011 10.7367 87.2144 10.6074 86.5294 10.349C85.8444 10.0905 85.2983 9.68435 84.891 9.1305C84.493 8.57663 84.2755 7.86124 84.2385 6.98432C84.2292 6.60586 84.2246 6.1997 84.2246 5.76588C84.2246 5.33201 84.2292 4.91663 84.2385 4.5197C84.2755 3.66127 84.4977 2.95512 84.9049 2.40124C85.3215 1.8474 85.8722 1.43663 86.5572 1.16893C87.2514 0.901241 88.0289 0.767395 88.8897 0.767395C89.4821 0.767395 90.0514 0.836626 90.5975 0.975087C91.1529 1.10432 91.6527 1.31201 92.097 1.59816C92.5413 1.88432 92.893 2.25355 93.1522 2.70586C93.4206 3.14893 93.5595 3.68432 93.5687 4.31201C93.5687 4.39509 93.5363 4.46893 93.4715 4.53355C93.416 4.58893 93.3466 4.61663 93.2633 4.61663H90.4309C90.2828 4.61663 90.1717 4.58893 90.0977 4.53355C90.0329 4.46893 89.9727 4.36278 89.9172 4.21509C89.8154 3.9197 89.6765 3.72124 89.5006 3.6197C89.3248 3.51816 89.1165 3.46739 88.8758 3.46739C88.5704 3.46739 88.3251 3.55047 88.14 3.71663C87.9641 3.87355 87.8669 4.16432 87.8484 4.58893C87.8206 5.34586 87.8206 6.12124 87.8484 6.91512C87.8669 7.3397 87.9641 7.63509 88.14 7.80127C88.3251 7.95819 88.5704 8.03665 88.8758 8.03665C89.1165 8.03665 89.3248 7.98127 89.5006 7.87047C89.6858 7.7597 89.8246 7.56589 89.9172 7.28893C89.9635 7.13201 90.0236 7.02586 90.0977 6.97047C90.1717 6.91509 90.2828 6.88742 90.4309 6.88742H93.2633C93.3466 6.88742 93.416 6.91973 93.4715 6.98432C93.5363 7.0397 93.5687 7.10893 93.5687 7.19204C93.5595 7.81973 93.4206 8.35973 93.1522 8.81201C92.893 9.25512 92.5413 9.61973 92.097 9.90588C91.6527 10.192 91.1529 10.4043 90.5975 10.5428C90.0514 10.672 89.4821 10.7367 88.8897 10.7367ZM95.046 10.5982C94.9442 10.5982 94.8562 10.5613 94.7822 10.4874C94.7081 10.4136 94.6711 10.3259 94.6711 10.2243V1.2797C94.6711 1.17816 94.7081 1.09047 94.7822 1.01663C94.8562 0.94278 94.9442 0.905857 95.046 0.905857H97.6979C97.7997 0.905857 97.8876 0.94278 97.9617 1.01663C98.0357 1.09047 98.0728 1.17816 98.0728 1.2797V4.02124L99.6417 1.21047C99.688 1.13663 99.7528 1.0674 99.8361 1.00278C99.9286 0.938164 100.049 0.905857 100.197 0.905857H103.265C103.349 0.905857 103.418 0.938164 103.474 1.00278C103.539 1.05816 103.571 1.1274 103.571 1.21047C103.571 1.26586 103.557 1.31663 103.529 1.36278L101.03 5.54432L103.765 10.1413C103.793 10.1782 103.807 10.229 103.807 10.2936C103.807 10.3767 103.775 10.4505 103.71 10.5151C103.654 10.5705 103.585 10.5982 103.502 10.5982H100.336C100.151 10.5982 100.012 10.5567 99.9194 10.4736C99.8361 10.3813 99.7851 10.3167 99.7666 10.2797L98.0728 7.26124V10.2243C98.0728 10.3259 98.0357 10.4136 97.9617 10.4874C97.8876 10.5613 97.7997 10.5982 97.6979 10.5982H95.046Z" fill="white"/>
</svg>
