<svg width="104" height="11" viewBox="0 0 104 11" fill="none" xmlns="http://www.w3.org/2000/svg">
<path d="M0.717023 10.5982C0.615205 10.5982 0.527273 10.5613 0.453223 10.4874C0.379173 10.4136 0.342148 10.3259 0.342148 10.2243V1.2797C0.342148 1.17816 0.379173 1.09047 0.453223 1.01663C0.527273 0.94278 0.615205 0.905857 0.717023 0.905857H4.92396C5.76628 0.905857 6.49752 1.03047 7.11768 1.2797C7.74711 1.5197 8.23306 1.89355 8.57554 2.40124C8.92727 2.8997 9.10314 3.53201 9.10314 4.29816C9.10314 5.06432 8.92727 5.69201 8.57554 6.18127C8.23306 6.66124 7.74711 7.01663 7.11768 7.2474C6.49752 7.46893 5.76628 7.5797 4.92396 7.5797H3.95206V10.2243C3.95206 10.3259 3.91504 10.4136 3.84099 10.4874C3.76694 10.5613 3.67901 10.5982 3.57719 10.5982H0.717023ZM3.88265 5.01816H4.85455C5.00265 5.01816 5.14611 4.96278 5.28496 4.85201C5.4238 4.73201 5.49322 4.53816 5.49322 4.27047C5.49322 4.09509 5.44694 3.9197 5.35438 3.74432C5.27107 3.56893 5.10446 3.48127 4.85455 3.48127H3.88265V5.01816ZM10.5066 10.5982C10.4048 10.5982 10.3169 10.5613 10.2428 10.4874C10.1688 10.4136 10.1317 10.3259 10.1317 10.2243V1.2797C10.1317 1.17816 10.1688 1.09047 10.2428 1.01663C10.3169 0.94278 10.4048 0.905857 10.5066 0.905857H14.6164C15.9493 0.905857 16.9906 1.20586 17.7403 1.80586C18.4901 2.40586 18.865 3.2274 18.865 4.27047C18.865 4.88893 18.7215 5.42893 18.4345 5.8905C18.1569 6.34281 17.8005 6.7074 17.3655 6.98432L19.0732 10.1413C19.101 10.1967 19.1149 10.2474 19.1149 10.2936C19.1149 10.3767 19.0825 10.4505 19.0177 10.5151C18.9621 10.5705 18.8927 10.5982 18.8094 10.5982H15.9631C15.778 10.5982 15.6392 10.552 15.5466 10.4597C15.454 10.3674 15.3939 10.289 15.3661 10.2243L14.1721 7.5797H13.6028V10.2243C13.6028 10.3259 13.5658 10.4136 13.4917 10.4874C13.4177 10.5613 13.3298 10.5982 13.2279 10.5982H10.5066ZM13.6028 4.94893H14.6164C14.8293 4.94893 14.9866 4.8797 15.0884 4.74124C15.1995 4.59355 15.255 4.42739 15.255 4.24278C15.255 4.05816 15.2041 3.8874 15.1023 3.73047C15.0098 3.56435 14.8478 3.48127 14.6164 3.48127H13.6028V4.94893ZM20.5264 10.5982C20.4246 10.5982 20.3367 10.5613 20.2626 10.4874C20.1886 10.4136 20.1516 10.3259 20.1516 10.2243V1.2797C20.1516 1.17816 20.1886 1.09047 20.2626 1.01663C20.3367 0.94278 20.4246 0.905857 20.5264 0.905857H23.3588C23.4607 0.905857 23.5486 0.94278 23.6226 1.01663C23.6967 1.09047 23.7337 1.17816 23.7337 1.2797V10.2243C23.7337 10.3259 23.6967 10.4136 23.6226 10.4874C23.5486 10.5613 23.4607 10.5982 23.3588 10.5982H20.5264ZM29.6646 10.7367C28.776 10.7367 27.9893 10.6074 27.3043 10.349C26.6193 10.0905 26.0732 9.68435 25.666 9.1305C25.2679 8.57663 25.0504 7.86124 25.0134 6.98432C25.0041 6.60586 24.9995 6.1997 24.9995 5.76588C24.9995 5.33201 25.0041 4.91663 25.0134 4.5197C25.0504 3.66127 25.2726 2.95512 25.6798 2.40124C26.0964 1.8474 26.6471 1.43663 27.3321 1.16893C28.0263 0.901241 28.8038 0.767395 29.6646 0.767395C30.257 0.767395 30.8263 0.836626 31.3724 0.975087C31.9278 1.10432 32.4276 1.31201 32.8719 1.59816C33.3162 1.88432 33.6679 2.25355 33.9271 2.70586C34.1955 3.14893 34.3344 3.68432 34.3436 4.31201C34.3436 4.39509 34.3112 4.46893 34.2464 4.53355C34.1909 4.58893 34.1215 4.61663 34.0382 4.61663H31.2058C31.0577 4.61663 30.9466 4.58893 30.8726 4.53355C30.8078 4.46893 30.7476 4.36278 30.6921 4.21509C30.5902 3.9197 30.4514 3.72124 30.2755 3.6197C30.0997 3.51816 29.8914 3.46739 29.6507 3.46739C29.3453 3.46739 29.1 3.55047 28.9149 3.71663C28.739 3.87355 28.6418 4.16432 28.6233 4.58893C28.5955 5.34586 28.5955 6.12124 28.6233 6.91512C28.6418 7.3397 28.739 7.63509 28.9149 7.80127C29.1 7.95819 29.3453 8.03665 29.6507 8.03665C29.8914 8.03665 30.0997 7.98127 30.2755 7.87047C30.4607 7.7597 30.5995 7.56589 30.6921 7.28893C30.7383 7.13201 30.7985 7.02586 30.8726 6.97047C30.9466 6.91509 31.0577 6.88742 31.2058 6.88742H34.0382C34.1215 6.88742 34.1909 6.91973 34.2464 6.98432C34.3112 7.0397 34.3436 7.10893 34.3436 7.19204C34.3344 7.81973 34.1955 8.35973 33.9271 8.81201C33.6679 9.25512 33.3162 9.61973 32.8719 9.90588C32.4276 10.192 31.9278 10.4043 31.3724 10.5428C30.8263 10.672 30.257 10.7367 29.6646 10.7367ZM35.8209 10.5982C35.7191 10.5982 35.6311 10.5613 35.5571 10.4874C35.483 10.4136 35.446 10.3259 35.446 10.2243V1.2797C35.446 1.17816 35.483 1.09047 35.5571 1.01663C35.6311 0.94278 35.7191 0.905857 35.8209 0.905857H42.9435C43.0453 0.905857 43.1333 0.94278 43.2073 1.01663C43.2814 1.09047 43.3184 1.17816 43.3184 1.2797V3.23204C43.3184 3.33355 43.2814 3.42124 43.2073 3.49509C43.1333 3.56896 43.0453 3.60589 42.9435 3.60589H38.7782V4.47816H42.6381C42.7399 4.47816 42.8278 4.51509 42.9019 4.58893C42.9759 4.66278 43.0129 4.75047 43.0129 4.85201V6.65201C43.0129 6.75355 42.9759 6.84124 42.9019 6.91512C42.8278 6.98893 42.7399 7.02586 42.6381 7.02586H38.7782V7.89816H43.0546C43.1564 7.89816 43.2443 7.93509 43.3184 8.00896C43.3924 8.08281 43.4295 8.17047 43.4295 8.27201V10.2243C43.4295 10.3259 43.3924 10.4136 43.3184 10.4874C43.2443 10.5613 43.1564 10.5982 43.0546 10.5982H35.8209ZM48.761 10.7367C47.7336 10.7367 46.8867 10.5982 46.2202 10.3213C45.5538 10.0443 45.0539 9.67973 44.7207 9.22742C44.3875 8.77512 44.2116 8.29512 44.1931 7.7874C44.1931 7.70432 44.2209 7.63509 44.2764 7.5797C44.3412 7.51509 44.4153 7.48278 44.4986 7.48278H47.1366C47.2847 7.48278 47.3957 7.50586 47.4698 7.55201C47.5531 7.58893 47.641 7.64435 47.7336 7.71819C47.8262 7.78281 47.9187 7.84281 48.0113 7.89816C48.1131 7.94432 48.2242 7.98124 48.3445 8.00896C48.4741 8.02742 48.6129 8.03665 48.761 8.03665C49.0757 8.03665 49.3257 8.00435 49.5108 7.93973C49.7052 7.86589 49.8024 7.76896 49.8024 7.64893C49.8024 7.53817 49.7468 7.44586 49.6357 7.37201C49.5339 7.29816 49.3534 7.23355 49.0943 7.17816C48.8351 7.11355 48.4741 7.05355 48.0113 6.99816C47.28 6.89663 46.646 6.72586 46.1091 6.48586C45.5723 6.24586 45.1557 5.91816 44.8595 5.50278C44.5726 5.07816 44.4291 4.56124 44.4291 3.95201C44.4291 3.32432 44.605 2.77047 44.9567 2.29047C45.3177 1.81047 45.8129 1.43663 46.4424 1.16893C47.081 0.901241 47.8215 0.767395 48.6638 0.767395C49.3581 0.767395 49.9736 0.859703 50.5105 1.04432C51.0473 1.2197 51.5009 1.45509 51.8711 1.75047C52.2414 2.03663 52.5237 2.34586 52.7181 2.67816C52.9124 3.01047 53.0143 3.32893 53.0235 3.63355C53.0235 3.71663 52.9911 3.79047 52.9263 3.85509C52.8708 3.91047 52.806 3.93816 52.7319 3.93816H49.9551C49.8255 3.93816 49.7191 3.9197 49.6357 3.88278C49.5617 3.84586 49.483 3.79047 49.3997 3.71663C49.3534 3.67047 49.2655 3.6197 49.1359 3.56432C49.0156 3.4997 48.8582 3.46739 48.6638 3.46739C48.4324 3.46739 48.2612 3.50432 48.1501 3.57816C48.0483 3.64278 47.9974 3.73512 47.9974 3.85509C47.9974 3.93816 48.0391 4.01663 48.1224 4.09047C48.2057 4.16432 48.3584 4.22893 48.5805 4.28432C48.8027 4.3397 49.122 4.39509 49.5386 4.45047C50.4642 4.56124 51.2047 4.74124 51.76 4.99047C52.3247 5.23047 52.7319 5.55355 52.9819 5.9597C53.241 6.36586 53.3706 6.86893 53.3706 7.46893C53.3706 8.14278 53.167 8.72432 52.7597 9.21358C52.3617 9.70281 51.8156 10.0813 51.1214 10.349C50.4272 10.6074 49.6404 10.7367 48.761 10.7367ZM58.7893 10.7367C57.9007 10.7367 57.1139 10.6074 56.4289 10.349C55.744 10.0905 55.1979 9.68435 54.7906 9.1305C54.3926 8.57663 54.175 7.86124 54.138 6.98432C54.1288 6.60586 54.1241 6.1997 54.1241 5.76588C54.1241 5.33201 54.1288 4.91663 54.138 4.5197C54.175 3.66127 54.3972 2.95512 54.8045 2.40124C55.221 1.8474 55.7717 1.43663 56.4567 1.16893C57.1509 0.901241 57.9284 0.767395 58.7893 0.767395C59.3817 0.767395 59.9509 0.836626 60.497 0.975087C61.0524 1.10432 61.5522 1.31201 61.9965 1.59816C62.4408 1.88432 62.7926 2.25355 63.0517 2.70586C63.3202 3.14893 63.459 3.68432 63.4683 4.31201C63.4683 4.39509 63.4359 4.46893 63.3711 4.53355C63.3155 4.58893 63.2461 4.61663 63.1628 4.61663H60.3304C60.1823 4.61663 60.0712 4.58893 59.9972 4.53355C59.9324 4.46893 59.8722 4.36278 59.8167 4.21509C59.7149 3.9197 59.576 3.72124 59.4002 3.6197C59.2243 3.51816 59.016 3.46739 58.7754 3.46739C58.4699 3.46739 58.2246 3.55047 58.0395 3.71663C57.8636 3.87355 57.7664 4.16432 57.7479 4.58893C57.7202 5.34586 57.7202 6.12124 57.7479 6.91512C57.7664 7.3397 57.8636 7.63509 58.0395 7.80127C58.2246 7.95819 58.4699 8.03665 58.7754 8.03665C59.016 8.03665 59.2243 7.98127 59.4002 7.87047C59.5853 7.7597 59.7241 7.56589 59.8167 7.28893C59.863 7.13201 59.9231 7.02586 59.9972 6.97047C60.0712 6.91509 60.1823 6.88742 60.3304 6.88742H63.1628C63.2461 6.88742 63.3155 6.91973 63.3711 6.98432C63.4359 7.0397 63.4683 7.10893 63.4683 7.19204C63.459 7.81973 63.3202 8.35973 63.0517 8.81201C62.7926 9.25512 62.4408 9.61973 61.9965 9.90588C61.5522 10.192 61.0524 10.4043 60.497 10.5428C59.9509 10.672 59.3817 10.7367 58.7893 10.7367ZM64.9455 10.5982C64.8437 10.5982 64.7558 10.5659 64.6817 10.5013C64.6077 10.4274 64.5706 10.3351 64.5706 10.2243V1.2797C64.5706 1.17816 64.6077 1.09047 64.6817 1.01663C64.7558 0.94278 64.8437 0.905857 64.9455 0.905857H67.6668C67.7686 0.905857 67.8566 0.94278 67.9306 1.01663C68.0047 1.09047 68.0417 1.17816 68.0417 1.2797V4.1874H70.291V1.2797C70.291 1.17816 70.328 1.09047 70.402 1.01663C70.4761 0.94278 70.564 0.905857 70.6658 0.905857H73.3872C73.489 0.905857 73.5769 0.94278 73.651 1.01663C73.725 1.09047 73.762 1.17816 73.762 1.2797V10.2243C73.762 10.3259 73.725 10.4136 73.651 10.4874C73.5769 10.5613 73.489 10.5982 73.3872 10.5982H70.6658C70.564 10.5982 70.4761 10.5613 70.402 10.4874C70.328 10.4136 70.291 10.3259 70.291 10.2243V7.23355H68.0417V10.2243C68.0417 10.3259 68.0047 10.4136 67.9306 10.4874C67.8566 10.5613 67.7686 10.5982 67.6668 10.5982H64.9455ZM75.6705 10.5982C75.5687 10.5982 75.4808 10.5613 75.4067 10.4874C75.3327 10.4136 75.2957 10.3259 75.2957 10.2243V1.2797C75.2957 1.17816 75.3327 1.09047 75.4067 1.01663C75.4808 0.94278 75.5687 0.905857 75.6705 0.905857H82.7932C82.895 0.905857 82.9829 0.94278 83.057 1.01663C83.131 1.09047 83.1681 1.17816 83.1681 1.2797V3.23204C83.1681 3.33355 83.131 3.42124 83.057 3.49509C82.9829 3.56896 82.895 3.60589 82.7932 3.60589H78.6279V4.47816H82.4877C82.5896 4.47816 82.6775 4.51509 82.7515 4.58893C82.8256 4.66278 82.8626 4.75047 82.8626 4.85201V6.65201C82.8626 6.75355 82.8256 6.84124 82.7515 6.91512C82.6775 6.98893 82.5896 7.02586 82.4877 7.02586H78.6279V7.89816H82.9043C83.0061 7.89816 83.094 7.93509 83.1681 8.00896C83.2421 8.08281 83.2791 8.17047 83.2791 8.27201V10.2243C83.2791 10.3259 83.2421 10.4136 83.1681 10.4874C83.094 10.5613 83.0061 10.5982 82.9043 10.5982H75.6705ZM88.8898 10.7367C88.0012 10.7367 87.2145 10.6074 86.5295 10.349C85.8445 10.0905 85.2984 9.68435 84.8912 9.1305C84.4931 8.57663 84.2756 7.86124 84.2386 6.98432C84.2293 6.60586 84.2247 6.1997 84.2247 5.76588C84.2247 5.33201 84.2293 4.91663 84.2386 4.5197C84.2756 3.66127 84.4978 2.95512 84.905 2.40124C85.3216 1.8474 85.8723 1.43663 86.5573 1.16893C87.2515 0.901241 88.029 0.767395 88.8898 0.767395C89.4822 0.767395 90.0515 0.836626 90.5976 0.975087C91.153 1.10432 91.6528 1.31201 92.0971 1.59816C92.5414 1.88432 92.8931 2.25355 93.1523 2.70586C93.4207 3.14893 93.5596 3.68432 93.5688 4.31201C93.5688 4.39509 93.5364 4.46893 93.4716 4.53355C93.4161 4.58893 93.3467 4.61663 93.2634 4.61663H90.431C90.2829 4.61663 90.1718 4.58893 90.0978 4.53355C90.033 4.46893 89.9728 4.36278 89.9173 4.21509C89.8155 3.9197 89.6766 3.72124 89.5007 3.6197C89.3249 3.51816 89.1166 3.46739 88.8759 3.46739C88.5705 3.46739 88.3252 3.55047 88.1401 3.71663C87.9642 3.87355 87.867 4.16432 87.8485 4.58893C87.8207 5.34586 87.8207 6.12124 87.8485 6.91512C87.867 7.3397 87.9642 7.63509 88.1401 7.80127C88.3252 7.95819 88.5705 8.03665 88.8759 8.03665C89.1166 8.03665 89.3249 7.98127 89.5007 7.87047C89.6859 7.7597 89.8247 7.56589 89.9173 7.28893C89.9636 7.13201 90.0237 7.02586 90.0978 6.97047C90.1718 6.91509 90.2829 6.88742 90.431 6.88742H93.2634C93.3467 6.88742 93.4161 6.91973 93.4716 6.98432C93.5364 7.0397 93.5688 7.10893 93.5688 7.19204C93.5596 7.81973 93.4207 8.35973 93.1523 8.81201C92.8931 9.25512 92.5414 9.61973 92.0971 9.90588C91.6528 10.192 91.153 10.4043 90.5976 10.5428C90.0515 10.672 89.4822 10.7367 88.8898 10.7367ZM95.0461 10.5982C94.9443 10.5982 94.8563 10.5613 94.7823 10.4874C94.7082 10.4136 94.6712 10.3259 94.6712 10.2243V1.2797C94.6712 1.17816 94.7082 1.09047 94.7823 1.01663C94.8563 0.94278 94.9443 0.905857 95.0461 0.905857H97.698C97.7998 0.905857 97.8877 0.94278 97.9618 1.01663C98.0358 1.09047 98.0729 1.17816 98.0729 1.2797V4.02124L99.6418 1.21047C99.6881 1.13663 99.7529 1.0674 99.8362 1.00278C99.9287 0.938164 100.049 0.905857 100.197 0.905857H103.266C103.349 0.905857 103.418 0.938164 103.474 1.00278C103.539 1.05816 103.571 1.1274 103.571 1.21047C103.571 1.26586 103.557 1.31663 103.529 1.36278L101.03 5.54432L103.765 10.1413C103.793 10.1782 103.807 10.229 103.807 10.2936C103.807 10.3767 103.775 10.4505 103.71 10.5151C103.654 10.5705 103.585 10.5982 103.502 10.5982H100.336C100.151 10.5982 100.012 10.5567 99.9195 10.4736C99.8362 10.3813 99.7852 10.3167 99.7667 10.2797L98.0729 7.26124V10.2243C98.0729 10.3259 98.0358 10.4136 97.9618 10.4874C97.8877 10.5613 97.7998 10.5982 97.698 10.5982H95.0461Z" fill="#1C1C1C"/>
</svg>
