<svg width="45" height="45" viewBox="0 0 45 45" fill="none" xmlns="http://www.w3.org/2000/svg">
<circle cx="22.5" cy="22.5" r="22" stroke="#D9D9D9"/>
<path d="M19.2037 10.9073C19.2989 10.6931 19.3298 10.456 19.2926 10.2246C19.2555 9.99321 19.1518 9.77764 18.9943 9.60412C18.8368 9.43061 18.6322 9.30664 18.4055 9.24731C18.1788 9.18798 17.9398 9.19586 17.7174 9.26997C15.9629 9.85481 14.5637 11.0063 13.2804 12.2896C11.9904 13.57 10.9666 15.0931 10.2679 16.7711C9.56918 18.449 9.20947 20.2486 9.20947 22.0662C9.20947 23.8838 9.56918 25.6834 10.2679 27.3614C10.9666 29.0393 11.9904 30.5624 13.2804 31.8428C18.7397 37.3033 27.1884 36.9916 32.5848 31.5951C33.868 30.3119 35.0184 28.9126 35.6032 27.1569C35.6749 26.9411 35.6843 26.7094 35.6302 26.4885C35.5761 26.2675 35.4608 26.0664 35.2974 25.9081C35.1341 25.7498 34.9294 25.6408 34.7069 25.5937C34.4844 25.5466 34.2531 25.5632 34.0396 25.6417C29.7017 27.2391 24.7656 26.5286 21.4331 23.1948C18.0896 19.8513 17.4105 14.9407 19.2037 10.9073Z" fill="#D9D9D9"/>
</svg>
