<svg width="45" height="45" viewBox="0 0 45 45" fill="none" xmlns="http://www.w3.org/2000/svg">
<circle cx="22.5" cy="22.5" r="22" stroke="white"/>
<path d="M23.0001 31.75C23.3316 31.75 23.6495 31.8817 23.884 32.1161C24.1184 32.3505 24.2501 32.6685 24.2501 33V34.25C24.2501 34.5815 24.1184 34.8995 23.884 35.1339C23.6495 35.3683 23.3316 35.5 23.0001 35.5C22.6686 35.5 22.3506 35.3683 22.1162 35.1339C21.8818 34.8995 21.7501 34.5815 21.7501 34.25V33C21.7501 32.6685 21.8818 32.3505 22.1162 32.1161C22.3506 31.8817 22.6686 31.75 23.0001 31.75ZM30.9551 29.1875L31.8388 30.0712C32.0665 30.307 32.1925 30.6228 32.1897 30.9505C32.1868 31.2782 32.0554 31.5918 31.8236 31.8235C31.5918 32.0553 31.2783 32.1867 30.9506 32.1896C30.6228 32.1924 30.3071 32.0664 30.0713 31.8387L29.1876 30.955C28.9599 30.7192 28.8339 30.4035 28.8367 30.0757C28.8396 29.748 28.971 29.4345 29.2028 29.2027C29.4346 28.971 29.7481 28.8395 30.0758 28.8367C30.4036 28.8338 30.7193 28.9598 30.9551 29.1875ZM15.0451 29.1875C15.27 28.9633 15.5719 28.8332 15.8893 28.8235C16.2067 28.8138 16.516 28.9253 16.7542 29.1353C16.9924 29.3454 17.1417 29.6382 17.1718 29.9543C17.2019 30.2705 17.1106 30.5863 16.9163 30.8375L16.8126 30.955L15.9288 31.8387C15.7039 32.0629 15.402 32.1931 15.0846 32.2028C14.7672 32.2125 14.4579 32.101 14.2197 31.8909C13.9815 31.6809 13.8322 31.3881 13.8021 31.0719C13.772 30.7558 13.8633 30.44 14.0576 30.1887L14.1613 30.0712L15.0451 29.1875ZM23.0001 15.5C24.9892 15.5 26.8969 16.2902 28.3034 17.6967C29.7099 19.1032 30.5001 21.0109 30.5001 23C30.5001 24.9891 29.7099 26.8968 28.3034 28.3033C26.8969 29.7098 24.9892 30.5 23.0001 30.5C21.011 30.5 19.1033 29.7098 17.6968 28.3033C16.2903 26.8968 15.5001 24.9891 15.5001 23C15.5001 21.0109 16.2903 19.1032 17.6968 17.6967C19.1033 16.2902 21.011 15.5 23.0001 15.5ZM13.0001 21.75C13.3187 21.7504 13.6251 21.8723 13.8568 22.0911C14.0885 22.3098 14.2279 22.6087 14.2465 22.9267C14.2652 23.2448 14.1617 23.558 13.9572 23.8023C13.7528 24.0466 13.4627 24.2036 13.1463 24.2412L13.0001 24.25H11.7501C11.4315 24.2496 11.125 24.1277 10.8934 23.9089C10.6617 23.6902 10.5223 23.3913 10.5036 23.0733C10.4849 22.7552 10.5884 22.442 10.7929 22.1977C10.9974 21.9534 11.2875 21.7964 11.6038 21.7587L11.7501 21.75H13.0001ZM34.2501 21.75C34.5816 21.75 34.8995 21.8817 35.134 22.1161C35.3684 22.3505 35.5001 22.6685 35.5001 23C35.5001 23.3315 35.3684 23.6495 35.134 23.8839C34.8995 24.1183 34.5816 24.25 34.2501 24.25H33.0001C32.6686 24.25 32.3506 24.1183 32.1162 23.8839C31.8818 23.6495 31.7501 23.3315 31.7501 23C31.7501 22.6685 31.8818 22.3505 32.1162 22.1161C32.3506 21.8817 32.6686 21.75 33.0001 21.75H34.2501ZM14.1613 14.1612C14.3766 13.946 14.6629 13.8167 14.9667 13.7976C15.2705 13.7785 15.5708 13.8709 15.8113 14.0575L15.9288 14.1612L16.8126 15.045C17.0368 15.2699 17.1669 15.5718 17.1766 15.8892C17.1863 16.2067 17.0748 16.5159 16.8648 16.7541C16.6547 16.9923 16.3619 17.1416 16.0457 17.1717C15.7296 17.2019 15.4138 17.1105 15.1626 16.9162L15.0451 16.8125L14.1613 15.9287C13.927 15.6943 13.7953 15.3765 13.7953 15.045C13.7953 14.7135 13.927 14.3957 14.1613 14.1612ZM31.8388 14.1612C32.0732 14.3957 32.2048 14.7135 32.2048 15.045C32.2048 15.3765 32.0732 15.6943 31.8388 15.9287L30.9551 16.8125C30.8398 16.9319 30.7018 17.0271 30.5493 17.0926C30.3968 17.1581 30.2328 17.1926 30.0668 17.1941C29.9009 17.1955 29.7363 17.1639 29.5826 17.101C29.429 17.0382 29.2894 16.9454 29.1721 16.828C29.0547 16.7106 28.9619 16.5711 28.8991 16.4174C28.8362 16.2638 28.8046 16.0992 28.806 15.9332C28.8075 15.7673 28.8419 15.6032 28.9075 15.4507C28.973 15.2982 29.0682 15.1603 29.1876 15.045L30.0713 14.1612C30.3057 13.9269 30.6236 13.7953 30.9551 13.7953C31.2865 13.7953 31.6044 13.9269 31.8388 14.1612ZM23.0001 10.5C23.3316 10.5 23.6495 10.6317 23.884 10.8661C24.1184 11.1005 24.2501 11.4185 24.2501 11.75V13C24.2501 13.3315 24.1184 13.6495 23.884 13.8839C23.6495 14.1183 23.3316 14.25 23.0001 14.25C22.6686 14.25 22.3506 14.1183 22.1162 13.8839C21.8818 13.6495 21.7501 13.3315 21.7501 13V11.75C21.7501 11.4185 21.8818 11.1005 22.1162 10.8661C22.3506 10.6317 22.6686 10.5 23.0001 10.5Z" fill="white"/>
</svg>
